<?xml version="1.0" encoding="iso-8859-1"?>
<!-- Uploaded to: SVG Repo, www.svgrepo.com, Generator: SVG Repo Mixer Tools -->
<!DOCTYPE svg PUBLIC "-//W3C//DTD SVG 1.1//EN" "http://www.w3.org/Graphics/SVG/1.1/DTD/svg11.dtd">
<svg fill="#000000" height="800px" width="800px" version="1.1" id="Capa_1" xmlns="http://www.w3.org/2000/svg" xmlns:xlink="http://www.w3.org/1999/xlink" 
	 viewBox="0 0 308.004 308.004" xml:space="preserve">
<g>
	<path d="M244.63,29.53H220.27c0-9.784,0-19.184,0-26.935c0-0.9-0.467-1.736-1.234-2.208c-0.766-0.472-1.724-0.514-2.527-0.108
		C204.231,6.48,180.844,10.67,154.002,10.67S103.774,6.48,91.495,0.279c-0.804-0.406-1.761-0.366-2.528,0.106
		c-0.767,0.472-1.232,1.309-1.232,2.21c0,7.752,0,17.152,0,26.935H63.374c-5.58,0-10.103,4.523-10.103,10.103v13.446
		c0,5.58,4.523,10.103,10.103,10.103h24.361c0,6.843,0,13.059,0,18.071c0,3.457,2,6.611,5.127,8.083
		c16.076,7.567,44.219,9.695,61.14,9.695c18.273,0,45.549-2.389,61.129-9.696c3.136-1.471,5.139-4.625,5.139-8.089
		c0-5.016,0-11.228,0-18.065h24.361c5.58,0,10.103-4.523,10.103-10.103V39.633C254.733,34.053,250.21,29.53,244.63,29.53z
		 M116.047,70.479c0,4.143-3.357,7.5-7.5,7.5c-4.143,0-7.5-3.357-7.5-7.5V33.715c0-4.143,3.357-7.5,7.5-7.5
		c4.143,0,7.5,3.357,7.5,7.5V70.479z"/>
	<path d="M244.63,133.795H220.27c0-9.784,0-19.184,0-26.935c0-0.9-0.467-1.736-1.234-2.208c-0.766-0.472-1.724-0.514-2.527-0.108
		c-12.278,6.201-35.665,10.392-62.507,10.392s-50.229-4.19-62.507-10.392c-0.804-0.406-1.761-0.366-2.528,0.106
		c-0.767,0.472-1.232,1.309-1.232,2.21c0,7.752,0,17.152,0,26.935H63.374c-5.58,0-10.103,4.523-10.103,10.103v13.446
		c0,5.58,4.523,10.103,10.103,10.103h24.361c0,6.843,0,13.059,0,18.071c0,3.457,2,6.611,5.127,8.083
		c16.076,7.567,44.219,9.695,61.14,9.695c18.273,0,45.549-2.389,61.129-9.696c3.136-1.47,5.139-4.625,5.139-8.088
		c0-5.016,0-11.228,0-18.065h24.361c5.58,0,10.103-4.523,10.103-10.103v-13.446C254.733,138.319,250.21,133.795,244.63,133.795z
		 M116.047,174.629c0,4.143-3.357,7.5-7.5,7.5c-4.143,0-7.5-3.357-7.5-7.5v-36.765c0-4.143,3.357-7.5,7.5-7.5
		c4.143,0,7.5,3.357,7.5,7.5V174.629z"/>
	<path d="M244.63,238.503H220.27c0-9.784,0-19.184,0-26.935c0-0.9-0.467-1.736-1.234-2.208c-0.766-0.472-1.724-0.514-2.527-0.108
		c-12.278,6.201-35.665,10.392-62.507,10.392s-50.229-4.19-62.507-10.392c-0.804-0.406-1.761-0.366-2.528,0.106
		c-0.767,0.472-1.232,1.309-1.232,2.21c0,7.752,0,17.152,0,26.935H63.374c-5.58,0-10.103,4.523-10.103,10.103v13.446
		c0,5.58,4.523,10.103,10.103,10.103h24.361c0,6.843,0,13.059,0,18.071c0,3.457,2,6.611,5.127,8.083
		c16.076,7.567,44.219,9.695,61.14,9.695c18.273,0,45.549-2.39,61.129-9.696c3.136-1.471,5.139-4.625,5.139-8.089
		c0-5.016,0-11.228,0-18.065h24.361c5.58,0,10.103-4.523,10.103-10.103v-13.446C254.733,243.026,250.21,238.503,244.63,238.503z
		 M116.047,282.337c0,4.143-3.357,7.5-7.5,7.5c-4.143,0-7.5-3.357-7.5-7.5v-36.765c0-4.143,3.357-7.5,7.5-7.5
		c4.143,0,7.5,3.357,7.5,7.5V282.337z"/>
</g>
</svg>